<svg width="29" height="33" viewBox="0 0 29 33" fill="none" xmlns="http://www.w3.org/2000/svg">
<path fill-rule="evenodd" clip-rule="evenodd" d="M18.4011 0.644541C18.6288 0.768722 18.8076 0.964044 18.9088 1.19935C19.01 1.43465 19.0279 1.69638 18.9595 1.94278L15.8608 13.0708H27.1667C27.394 13.0708 27.6164 13.1359 27.8065 13.2581C27.9966 13.3802 28.1462 13.5541 28.2367 13.7584C28.3273 13.9627 28.3549 14.1885 28.3163 14.4079C28.2776 14.6274 28.1743 14.831 28.0191 14.9938L11.6857 32.136C11.5078 32.3232 11.271 32.4464 11.0131 32.4861C10.7552 32.5258 10.4912 32.4797 10.2633 32.3551C10.0354 32.2304 9.85669 32.0346 9.75584 31.7987C9.65499 31.5629 9.6378 31.3007 9.70701 31.0542L12.8057 19.9277H1.49985C1.27249 19.9277 1.05008 19.8626 0.859977 19.7404C0.669871 19.6183 0.520348 19.4444 0.429789 19.2401C0.33923 19.0358 0.311582 18.81 0.350243 18.5906C0.388904 18.3711 0.492189 18.1675 0.647403 18.0047L16.9808 0.862438C17.1587 0.676001 17.3952 0.553257 17.6526 0.513767C17.91 0.474277 18.1735 0.520314 18.4011 0.644541Z" fill="#9747FF"/>
</svg>
