<svg width="32" height="33" viewBox="0 0 32 33" fill="none" xmlns="http://www.w3.org/2000/svg">
<path fill-rule="evenodd" clip-rule="evenodd" d="M10.4254 3.04195C11.1179 2.24315 11.9741 1.6027 12.936 1.16409C13.8979 0.725488 14.9428 0.498998 16 0.500003C18.2269 0.500003 20.2224 1.48462 21.5746 3.04195C22.6292 2.96664 23.6878 3.11922 24.6783 3.4893C25.6687 3.85939 26.568 4.43832 27.3149 5.18677C28.063 5.93354 28.6418 6.83251 29.0118 7.82268C29.3819 8.81284 29.5346 9.87103 29.4597 10.9254C30.2582 11.618 30.8983 12.4743 31.3367 13.4362C31.775 14.3981 32.0012 15.443 32 16.5C32.001 17.5572 31.7745 18.6021 31.3359 19.564C30.8973 20.5259 30.2569 21.3821 29.458 22.0746C29.533 23.129 29.3803 24.1872 29.0102 25.1773C28.6401 26.1675 28.0614 27.0665 27.3132 27.8132C26.5665 28.5614 25.6675 29.1401 24.6773 29.5102C23.6872 29.8803 22.629 30.033 21.5746 29.958C20.8821 30.7569 20.0259 31.3973 19.064 31.8359C18.1021 32.2745 17.0572 32.501 16 32.5C14.9428 32.501 13.8979 32.2745 12.936 31.8359C11.9741 31.3973 11.1179 30.7569 10.4254 29.958C9.37088 30.0336 8.31242 29.8813 7.32194 29.5115C6.33146 29.1417 5.43217 28.563 4.68513 27.8149C3.93677 27.0679 3.3579 26.1687 2.98782 25.1782C2.61774 24.1877 2.46511 23.1292 2.54031 22.0746C1.74181 21.382 1.10167 20.5257 0.663348 19.5638C0.22503 18.6019 -0.00120388 17.557 4.8178e-06 16.5C4.8178e-06 14.2731 0.98462 12.2776 2.54195 10.9254C2.46689 9.87102 2.61958 8.8128 2.98966 7.82262C3.35974 6.83244 3.93854 5.93348 4.68677 5.18677C5.43348 4.43854 6.33244 3.85973 7.32262 3.48966C8.31281 3.11958 9.37102 2.96688 10.4254 3.04195ZM21.9241 13.5232C22.0226 13.392 22.0938 13.2424 22.1336 13.0833C22.1735 12.9242 22.1811 12.7587 22.1561 12.5966C22.131 12.4345 22.0738 12.279 21.9879 12.1393C21.9019 11.9996 21.7888 11.8785 21.6554 11.7831C21.5219 11.6877 21.3708 11.62 21.2108 11.5839C21.0508 11.5477 20.8851 11.544 20.7237 11.5728C20.5622 11.6016 20.4081 11.6623 20.2704 11.7515C20.1327 11.8408 20.0143 11.9566 19.9221 12.0922L14.6117 19.5261L11.9467 16.861C11.7134 16.6436 11.4048 16.5253 11.0859 16.5309C10.7671 16.5365 10.4628 16.6657 10.2373 16.8912C10.0118 17.1167 9.88267 17.4209 9.87705 17.7398C9.87142 18.0586 9.98978 18.3672 10.2072 18.6005L13.8995 22.2928C14.0258 22.4191 14.1781 22.5163 14.3458 22.5778C14.5135 22.6392 14.6926 22.6635 14.8706 22.6488C15.0486 22.6341 15.2213 22.5809 15.3766 22.4928C15.532 22.4047 15.6663 22.2838 15.7703 22.1386L21.9241 13.5232Z" fill="#00AE34"/>
</svg>
