<svg width="24" height="24" viewBox="0 0 24 24" fill="none" xmlns="http://www.w3.org/2000/svg">
<path d="M11.35 3.836C11.285 4.046 11.25 4.269 11.25 4.5C11.25 4.914 11.586 5.25 12 5.25H16.5C16.6989 5.25 16.8897 5.17098 17.0303 5.03033C17.171 4.88968 17.25 4.69891 17.25 4.5C17.2501 4.27491 17.2164 4.05109 17.15 3.836M11.35 3.836C11.492 3.3767 11.7774 2.97493 12.1643 2.68954C12.5511 2.40414 13.0192 2.25011 13.5 2.25H15C16.012 2.25 16.867 2.918 17.15 3.836M11.35 3.836C10.974 3.859 10.6 3.886 10.226 3.916C9.095 4.01 8.25 4.973 8.25 6.108V8.25M17.15 3.836C17.526 3.859 17.9 3.886 18.274 3.916C19.405 4.01 20.25 4.973 20.25 6.108V16.5C20.25 17.0967 20.0129 17.669 19.591 18.091C19.169 18.5129 18.5967 18.75 18 18.75H15.75M8.25 8.25H4.875C4.254 8.25 3.75 8.754 3.75 9.375V20.625C3.75 21.246 4.254 21.75 4.875 21.75H14.625C15.246 21.75 15.75 21.246 15.75 20.625V18.75M8.25 8.25H14.625C15.246 8.25 15.75 8.754 15.75 9.375V18.75M7.5 15.75L9 17.25L12 13.5" stroke="#A4A3A8" stroke-width="1.5" stroke-linecap="round" stroke-linejoin="round"/>
</svg>
