<svg width="24" height="24" viewBox="0 0 24 24" fill="none" xmlns="http://www.w3.org/2000/svg">
<path d="M4.26007 10.1469C3.98502 12.2525 3.82113 14.3711 3.76907 16.4939C6.64788 17.6964 9.40425 19.1732 12.0001 20.9039C14.5962 19.1732 17.3529 17.6964 20.2321 16.4939C20.18 14.3711 20.0161 12.2525 19.7411 10.1469M19.7411 10.1469C20.6161 9.85292 21.5031 9.58092 22.3991 9.33292C19.1356 7.04517 15.652 5.08881 12.0001 3.49292C8.34807 5.08914 4.86447 7.04584 1.60107 9.33392C2.49435 9.58055 3.38068 9.85165 4.25907 10.1469C6.9277 11.0441 9.51697 12.162 12.0001 13.4889C14.4828 12.162 17.0728 11.0441 19.7411 10.1469ZM6.75007 14.9999C6.94899 14.9999 7.13975 14.9209 7.2804 14.7802C7.42106 14.6396 7.50007 14.4488 7.50007 14.2499C7.50007 14.051 7.42106 13.8602 7.2804 13.7196C7.13975 13.5789 6.94899 13.4999 6.75007 13.4999C6.55116 13.4999 6.3604 13.5789 6.21974 13.7196C6.07909 13.8602 6.00007 14.051 6.00007 14.2499C6.00007 14.4488 6.07909 14.6396 6.21974 14.7802C6.3604 14.9209 6.55116 14.9999 6.75007 14.9999ZM6.75007 14.9999V11.3249C8.44681 10.2703 10.1994 9.30818 12.0001 8.44292M4.99307 19.9929C5.55105 19.4363 5.99351 18.7749 6.29504 18.0468C6.59656 17.3186 6.75121 16.538 6.75007 15.7499V14.2499" stroke="#513DEB" stroke-width="1.5" stroke-linecap="round" stroke-linejoin="round"/>
</svg>
