<svg width="33" height="33" viewBox="0 0 33 33" fill="none" xmlns="http://www.w3.org/2000/svg">
<path fill-rule="evenodd" clip-rule="evenodd" d="M16.667 0.500004C15.6094 0.498967 14.5641 0.725575 13.6019 1.16443C12.6397 1.60328 11.7833 2.2441 11.0908 3.04333C10.0365 2.96806 8.97835 3.12048 7.98818 3.49023C6.998 3.85999 6.09897 4.43843 5.35212 5.18629C4.60376 5.93317 4.02489 6.83232 3.65481 7.82268C3.28473 8.81305 3.13211 9.87145 3.2073 10.926C2.40888 11.6186 1.7688 12.4748 1.33049 13.4366C0.892177 14.3983 0.665895 15.4431 0.666996 16.5C0.666996 18.7266 1.65161 20.7219 3.2073 22.074C3.13211 23.1286 3.28473 24.187 3.65481 25.1773C4.02489 26.1677 4.60376 27.0668 5.35212 27.8137C6.09901 28.5621 6.99824 29.141 7.98873 29.511C8.97921 29.8811 10.0377 30.0336 11.0924 29.9583C11.7849 30.757 12.6411 31.3974 13.603 31.836C14.5649 32.2745 15.6098 32.501 16.667 32.5C17.7241 32.501 18.7691 32.2745 19.731 31.836C20.6929 31.3974 21.5491 30.757 22.2416 29.9583C23.296 30.0334 24.3542 29.8807 25.3444 29.5107C26.3346 29.1406 27.2335 28.5619 27.9802 27.8137C28.7281 27.0669 29.3065 26.1679 29.6763 25.1779C30.0461 24.1878 30.1986 23.1298 30.1234 22.0756C30.9226 21.3832 31.5635 20.5268 32.0023 19.5647C32.4412 18.6027 32.6679 17.5574 32.667 16.5C32.667 14.2734 31.6807 12.2781 30.125 10.926C30.2002 9.87145 30.0476 8.81305 29.6775 7.82268C29.3075 6.83232 28.7286 5.93317 27.9802 5.18629C27.2333 4.43792 26.3341 3.85905 25.3436 3.489C24.3531 3.11895 23.2946 2.96639 22.2399 3.04169C21.5476 2.24318 20.6917 1.60292 19.7301 1.16437C18.7685 0.725814 17.7239 0.499234 16.667 0.500004ZM22.4598 12.4454C22.6772 12.2122 22.7956 11.9036 22.7899 11.5848C22.7843 11.266 22.6552 10.9618 22.4297 10.7363C22.2042 10.5108 21.8999 10.3817 21.5811 10.376C21.2622 10.3704 20.9536 10.4888 20.7203 10.7061L10.8742 20.5513C10.7533 20.6639 10.6563 20.7998 10.589 20.9508C10.5217 21.1017 10.4856 21.2647 10.4826 21.4299C10.4797 21.5952 10.5101 21.7593 10.572 21.9125C10.6339 22.0658 10.7261 22.205 10.8429 22.3218C10.9598 22.4387 11.099 22.5308 11.2523 22.5927C11.4055 22.6546 11.5697 22.685 11.7349 22.6821C11.9002 22.6792 12.0632 22.643 12.2141 22.5757C12.3651 22.5085 12.501 22.4115 12.6137 22.2906L22.4598 12.4454ZM12.9747 10.9605C12.4851 10.9605 12.0155 11.155 11.6693 11.5011C11.323 11.8473 11.1285 12.3169 11.1285 12.8064C11.1285 13.296 11.323 13.7655 11.6693 14.1117C12.0155 14.4579 12.4851 14.6524 12.9747 14.6524C13.4643 14.6524 13.9339 14.4579 14.2801 14.1117C14.6263 13.7655 14.8208 13.296 14.8208 12.8064C14.8208 12.3169 14.6263 11.8473 14.2801 11.5011C13.9339 11.155 13.4643 10.9605 12.9747 10.9605ZM20.3593 18.3443C19.8697 18.3443 19.4001 18.5388 19.0539 18.885C18.7077 19.2312 18.5131 19.7007 18.5131 20.1903C18.5131 20.6799 18.7077 21.1494 19.0539 21.4956C19.4001 21.8418 19.8697 22.0363 20.3593 22.0363C20.8489 22.0363 21.3185 21.8418 21.6647 21.4956C22.0109 21.1494 22.2055 20.6799 22.2055 20.1903C22.2055 19.7007 22.0109 19.2312 21.6647 18.885C21.3185 18.5388 20.8489 18.3443 20.3593 18.3443Z" fill="#FFDA20"/>
</svg>
