<svg width="24" height="24" viewBox="0 0 24 24" fill="none" xmlns="http://www.w3.org/2000/svg">
<path d="M19.114 5.63589C19.9497 6.47162 20.6127 7.46377 21.065 8.55571C21.5173 9.64765 21.7501 10.818 21.7501 11.9999C21.7501 13.1818 21.5173 14.3521 21.065 15.4441C20.6127 16.536 19.9497 17.5282 19.114 18.3639M16.463 8.28789C17.4474 9.27243 18.0004 10.6077 18.0004 11.9999C18.0004 13.3921 17.4474 14.7273 16.463 15.7119M6.75 8.24989L11.47 3.52989C11.5749 3.42513 11.7085 3.35381 11.8539 3.32492C11.9993 3.29604 12.15 3.31089 12.2869 3.3676C12.4239 3.42431 12.541 3.52034 12.6234 3.64356C12.7058 3.76677 12.7499 3.91165 12.75 4.05989V19.9399C12.7499 20.0881 12.7058 20.233 12.6234 20.3562C12.541 20.4794 12.4239 20.5755 12.2869 20.6322C12.15 20.6889 11.9993 20.7037 11.8539 20.6749C11.7085 20.646 11.5749 20.5746 11.47 20.4699L6.75 15.7499H4.51C3.63 15.7499 2.806 15.2429 2.572 14.3959C2.35751 13.6153 2.2492 12.8094 2.25 11.9999C2.25 11.1699 2.362 10.3669 2.572 9.60389C2.806 8.75589 3.63 8.24989 4.51 8.24989H6.75Z" stroke="#1D1C1E" stroke-width="1.5" stroke-linecap="round" stroke-linejoin="round"/>
</svg>
