<svg width="24" height="24" viewBox="0 0 24 24" fill="none" xmlns="http://www.w3.org/2000/svg">
<path d="M12 18V12.75M12 12.75C12.506 12.7504 13.01 12.6869 13.5 12.561M12 12.75C11.4941 12.7504 10.9901 12.6869 10.5 12.561M14.25 20.039C12.7633 20.3213 11.2367 20.3213 9.75001 20.039M13.5 22.422C12.5027 22.5264 11.4973 22.5264 10.5 22.422M14.25 18V17.808C14.25 16.825 14.908 15.985 15.758 15.492C17.186 14.665 18.3014 13.3902 18.9314 11.865C19.5614 10.3399 19.6708 8.64948 19.2427 7.05582C18.8145 5.46217 17.8728 4.05419 16.5633 3.05006C15.2538 2.04594 13.6497 1.50171 11.9995 1.50171C10.3493 1.50171 8.74524 2.04594 7.43575 3.05006C6.12626 4.05419 5.18448 5.46217 4.75634 7.05582C4.32821 8.64948 4.43761 10.3399 5.0676 11.865C5.6976 13.3902 6.81301 14.665 8.24101 15.492C9.09101 15.985 9.75001 16.825 9.75001 17.808V18" stroke="#A4A3A8" stroke-width="1.5" stroke-linecap="round" stroke-linejoin="round"/>
</svg>
