<?xml version="1.0" encoding="utf-8" ?>
<svg xmlns="http://www.w3.org/2000/svg" viewBox="228 185 588 648" width="1024" height="1024" fill="currentColor">
  <defs />
  <path d="M 478,806 477,807 456,807 455,808 435,808 434,809 426,809 425,810 418,810 417,811 414,811 413,812 410,812 409,813 408,813 407,814 406,814 403,817 403,819 402,820 402,821 403,822 403,823 406,826 407,826 408,827 409,827 410,828 411,828 412,829 415,829 416,830 421,830 422,831 437,831 438,832 519,832 520,833 566,833 567,832 594,832 595,831 605,831 606,830 611,830 612,829 615,829 616,828 618,828 619,827 620,827 625,822 625,818 624,817 624,816 623,815 622,815 621,814 620,814 619,813 618,813 617,812 614,812 613,811 610,811 609,810 602,810 601,809 593,809 592,808 569,808 568,807 548,807 547,806 Z" fill="currentColor" stroke="none" />
<path d="M 477,597 476,598 476,601 477,602 476,603 476,611 477,612 477,637 476,638 476,743 477,744 477,752 478,753 478,754 481,757 482,757 484,759 485,759 486,760 487,760 488,761 489,761 490,762 491,762 492,763 494,763 495,764 497,764 498,765 501,765 502,766 507,766 508,767 520,767 521,766 526,766 527,765 529,765 530,764 532,764 533,763 534,763 535,762 536,762 537,761 538,761 539,760 540,760 542,758 543,758 545,756 546,756 549,753 549,597 548,598 547,598 546,599 545,599 542,602 541,602 539,604 538,604 537,605 536,605 535,606 534,606 533,607 532,607 531,608 528,608 527,609 524,609 523,610 506,610 505,609 501,609 500,608 498,608 497,607 496,607 495,606 493,606 492,605 491,605 490,604 489,604 488,603 487,603 486,602 485,602 483,600 482,600 481,599 480,599 479,598 478,598 Z" fill="currentColor" stroke="none" /><path d="M 477,550 477,577 479,577 481,579 482,579 484,581 485,581 487,583 488,583 490,585 491,585 492,586 493,586 494,587 495,587 496,588 498,588 499,589 501,589 502,590 520,590 521,589 523,589 524,588 526,588 527,587 529,587 530,586 531,586 532,585 533,585 534,584 535,584 537,582 538,582 540,580 541,580 542,579 544,579 545,578 548,578 548,577 549,576 549,561 548,560 548,552 547,552 546,553 545,553 543,555 542,555 541,556 539,556 538,557 535,557 534,558 530,558 529,559 524,559 523,560 501,560 500,559 496,559 495,558 492,558 491,557 490,557 489,556 488,556 487,555 486,555 485,554 484,554 483,553 482,553 481,552 480,552 478,550 Z" fill="currentColor" stroke="none" /><path d="M 731,462 730,463 728,463 727,464 726,464 725,465 724,465 723,466 722,466 721,467 720,467 719,468 718,468 717,469 716,469 715,470 714,470 713,471 712,471 711,472 710,472 709,473 708,473 707,474 706,474 705,475 704,475 703,476 702,476 701,477 700,477 699,478 698,478 697,479 696,479 694,481 693,481 692,482 691,482 690,483 689,483 688,484 687,484 686,485 685,485 684,486 682,486 681,487 680,487 679,488 678,488 676,490 675,490 674,491 673,491 672,492 671,492 670,493 669,493 668,494 667,494 666,495 665,495 664,496 663,496 662,497 661,497 660,498 659,498 658,499 657,499 656,500 655,500 654,501 653,501 652,502 651,502 650,503 649,503 648,504 647,504 646,505 645,505 644,506 643,506 642,507 641,507 640,508 639,508 638,509 637,509 636,510 635,510 634,511 633,511 632,512 631,512 630,513 629,513 628,514 627,514 626,515 625,515 624,516 623,516 622,517 621,517 620,518 619,518 618,519 617,519 616,520 615,520 614,521 613,521 612,522 611,522 610,523 609,523 608,524 607,524 606,525 605,525 604,526 603,526 602,527 601,527 600,528 599,528 598,529 597,529 596,530 595,530 594,531 593,531 592,532 591,532 590,533 588,533 587,534 586,534 585,535 584,535 583,536 582,536 581,537 580,537 579,538 578,538 577,539 576,539 575,540 574,540 573,541 572,541 571,542 570,542 569,543 568,543 568,545 569,546 569,623 568,624 568,687 569,688 569,707 568,708 568,743 567,744 567,748 568,747 569,747 570,746 571,746 572,745 573,745 574,744 576,744 577,743 578,743 579,742 580,742 581,741 583,741 584,740 585,740 586,739 587,739 588,738 589,738 590,737 591,737 592,736 594,736 595,735 596,735 597,734 598,734 599,733 600,733 601,732 602,732 604,730 606,730 607,729 608,729 609,728 610,728 611,727 612,727 613,726 614,726 615,725 616,725 617,724 618,724 619,723 620,723 621,722 622,722 623,721 624,721 625,720 626,720 627,719 628,719 629,718 630,718 631,717 632,717 633,716 634,716 635,715 637,715 638,714 639,714 640,713 641,713 642,712 643,712 644,711 645,711 646,710 647,710 648,709 649,709 650,708 651,708 652,707 653,707 654,706 655,706 656,705 657,705 658,704 659,704 660,703 661,703 662,702 663,702 664,701 665,701 666,700 667,700 668,699 669,699 670,698 671,698 672,697 673,697 674,696 675,696 676,695 677,695 678,694 679,694 680,693 681,693 682,692 683,692 684,691 685,691 686,690 687,690 688,689 689,689 690,688 691,688 692,687 693,687 694,686 695,686 696,685 697,685 698,684 700,684 701,683 702,683 703,682 705,682 706,681 707,681 708,680 710,680 711,679 712,679 713,678 714,678 715,677 716,677 717,676 719,676 720,675 721,675 722,674 723,674 725,672 726,672 729,669 730,669 732,667 732,666 734,664 734,663 735,662 735,661 736,660 736,659 737,658 737,657 738,656 738,653 739,652 739,490 740,489 740,469 739,468 739,466 737,464 736,464 735,463 733,463 732,462 Z" fill="currentColor" stroke="none" /><path d="M 292,461 291,462 290,462 288,464 288,465 287,466 287,467 286,468 286,652 287,653 287,655 288,656 288,657 289,658 289,660 291,662 291,663 298,670 299,670 300,671 301,671 302,672 303,672 304,673 305,673 306,674 307,674 308,675 309,675 310,676 311,676 312,677 313,677 314,678 315,678 316,679 317,679 318,680 319,680 320,681 321,681 322,682 323,682 324,683 325,683 326,684 327,684 328,685 330,685 331,686 332,686 333,687 335,687 336,688 337,688 338,689 339,689 340,690 341,690 342,691 343,691 344,692 345,692 347,694 348,694 349,695 350,695 351,696 353,696 354,697 355,697 357,699 358,699 359,700 360,700 361,701 362,701 363,702 364,702 365,703 366,703 367,704 368,704 369,705 370,705 371,706 372,706 373,707 374,707 375,708 376,708 377,709 378,709 379,710 380,710 382,712 384,712 385,713 386,713 387,714 388,714 389,715 390,715 391,716 392,716 393,717 395,717 396,718 397,718 398,719 399,719 400,720 401,720 402,721 403,721 404,722 405,722 406,723 407,723 408,724 409,724 410,725 411,725 412,726 413,726 414,727 415,727 416,728 417,728 418,729 419,729 420,730 421,730 422,731 423,731 424,732 425,732 426,733 427,733 428,734 429,734 430,735 432,735 433,736 434,736 435,737 436,737 437,738 438,738 439,739 440,739 442,741 443,741 444,742 445,742 446,743 447,743 448,744 449,744 450,745 451,745 453,747 454,747 455,748 457,748 457,548 458,547 458,543 456,541 455,541 454,540 453,540 452,539 451,539 450,538 449,538 448,537 447,537 446,536 445,536 444,535 443,535 442,534 441,534 439,532 437,532 436,531 435,531 434,530 433,530 432,529 431,529 430,528 429,528 428,527 426,527 425,526 424,526 422,524 420,524 419,523 418,523 417,522 416,522 415,521 414,521 413,520 412,520 411,519 410,519 409,518 408,518 407,517 406,517 405,516 404,516 403,515 402,515 401,514 400,514 399,513 398,513 397,512 396,512 395,511 394,511 393,510 392,510 391,509 390,509 389,508 388,508 387,507 386,507 385,506 384,506 383,505 382,505 381,504 380,504 379,503 378,503 377,502 376,502 375,501 374,501 373,500 372,500 371,499 370,499 369,498 368,498 367,497 366,497 365,496 364,496 363,495 362,495 361,494 360,494 359,493 358,493 357,492 356,492 355,491 354,491 352,489 351,489 350,488 349,488 348,487 347,487 346,486 345,486 344,485 343,485 342,484 341,484 340,483 339,483 338,482 337,482 336,481 335,481 334,480 333,480 331,478 330,478 329,477 328,477 327,476 326,476 325,475 324,475 323,474 322,474 321,473 320,473 319,472 318,472 317,471 316,471 315,470 314,470 313,469 312,469 311,468 310,468 309,467 308,467 307,466 306,466 305,465 304,465 303,464 302,464 300,462 298,462 297,461 Z" fill="currentColor" stroke="none" /><path d="M 310,429 310,432 309,433 309,447 311,449 312,449 313,450 315,450 316,451 317,451 318,452 319,452 320,453 321,453 322,454 323,454 324,455 325,455 326,456 328,456 329,457 330,457 331,458 332,458 333,459 334,459 335,460 336,460 337,461 338,461 339,462 340,462 341,463 343,463 345,465 346,465 347,466 348,466 349,467 350,467 351,468 352,468 353,469 354,469 355,470 356,470 357,471 358,471 359,472 360,472 362,474 363,474 364,475 365,475 366,476 367,476 368,477 370,477 371,478 372,478 373,479 374,479 375,480 376,480 377,481 378,481 380,483 381,483 382,484 384,484 386,486 388,486 390,488 391,488 392,489 393,489 394,490 395,490 396,491 397,491 398,492 399,492 400,493 401,493 402,494 403,494 404,495 405,495 406,496 407,496 408,497 409,497 410,498 411,498 412,499 414,499 415,500 416,500 417,501 418,501 419,502 420,502 421,503 422,503 423,504 424,504 425,505 426,505 427,506 428,506 429,507 430,507 431,508 432,508 433,509 434,509 435,510 436,510 437,511 438,511 439,512 440,512 441,513 442,513 443,514 444,514 445,515 446,515 447,516 449,516 450,517 451,517 452,518 453,518 454,519 455,519 456,520 457,520 458,521 459,521 460,522 461,522 462,523 463,523 464,524 465,524 466,525 467,525 469,527 470,527 471,528 472,528 473,529 474,529 476,531 477,531 478,532 479,532 480,533 481,533 482,534 483,534 484,535 485,535 486,536 488,536 489,537 491,537 492,538 495,538 496,539 499,539 500,540 507,540 508,541 518,541 519,540 525,540 526,539 531,539 532,538 534,538 535,537 537,537 538,536 539,536 540,535 541,535 542,534 544,534 545,533 546,533 547,532 548,532 549,531 550,531 551,530 552,530 553,529 554,529 555,528 556,528 558,526 559,526 560,525 561,525 562,524 563,524 564,523 565,523 566,522 568,522 569,521 570,521 571,520 572,520 573,519 574,519 575,518 576,518 577,517 578,517 579,516 580,516 581,515 583,515 584,514 585,514 586,513 587,513 588,512 589,512 590,511 591,511 592,510 593,510 594,509 595,509 596,508 597,508 598,507 599,507 600,506 601,506 602,505 603,505 604,504 605,504 606,503 607,503 608,502 609,502 610,501 611,501 612,500 614,500 615,499 616,499 617,498 618,498 619,497 620,497 621,496 622,496 623,495 624,495 625,494 626,494 628,492 629,492 630,491 631,491 632,490 634,490 635,489 636,489 637,488 638,488 639,487 640,487 641,486 642,486 644,484 645,484 646,483 647,483 648,482 649,482 650,481 651,481 652,480 653,480 654,479 655,479 656,478 657,478 658,477 659,477 660,476 661,476 662,475 663,475 664,474 665,474 666,473 667,473 668,472 669,472 670,471 671,471 672,470 673,470 674,469 675,469 676,468 677,468 678,467 679,467 680,466 681,466 682,465 683,465 684,464 685,464 686,463 687,463 688,462 689,462 690,461 691,461 692,460 693,460 694,459 695,459 696,458 697,458 698,457 699,457 700,456 702,456 704,454 706,454 708,452 710,452 711,451 712,451 713,450 714,450 715,449 717,449 718,448 718,431 717,430 714,430 713,431 712,431 711,432 710,432 709,433 708,433 707,434 706,434 705,435 704,435 703,436 701,436 700,437 699,437 698,438 697,438 696,439 695,439 694,440 692,440 690,442 689,442 688,443 687,443 686,444 685,444 684,445 683,445 682,446 681,446 680,447 679,447 678,448 677,448 676,449 675,449 674,450 673,450 672,451 671,451 670,452 669,452 668,453 667,453 666,454 665,454 664,455 663,455 662,456 661,456 660,457 659,457 658,458 657,458 656,459 655,459 654,460 653,460 652,461 651,461 650,462 649,462 648,463 647,463 646,464 645,464 644,465 643,465 642,466 641,466 640,467 639,467 638,468 637,468 636,469 635,469 634,470 633,470 632,471 631,471 630,472 629,472 628,473 627,473 626,474 625,474 624,475 623,475 622,476 621,476 619,478 618,478 617,479 616,479 615,480 614,480 613,481 612,481 611,482 610,482 609,483 608,483 607,484 605,484 604,485 603,485 602,486 601,486 600,487 599,487 598,488 597,488 596,489 595,489 593,491 592,491 591,492 590,492 589,493 588,493 587,494 586,494 585,495 584,495 583,496 582,496 581,497 580,497 579,498 577,498 575,500 573,500 572,501 571,501 570,502 569,502 568,503 567,503 566,504 565,504 564,505 563,505 562,506 561,506 559,508 558,508 557,509 556,509 555,510 554,510 553,511 552,511 551,512 549,512 548,513 547,513 546,514 545,514 544,515 543,515 542,516 541,516 540,517 539,517 538,518 537,518 536,519 534,519 533,520 532,520 531,521 529,521 528,522 525,522 524,523 521,523 520,524 504,524 503,523 501,523 500,522 497,522 496,521 495,521 494,520 493,520 492,519 491,519 490,518 488,518 486,516 485,516 484,515 483,515 482,514 481,514 479,512 478,512 477,511 476,511 475,510 473,510 471,508 470,508 469,507 468,507 467,506 466,506 465,505 464,505 463,504 462,504 461,503 460,503 459,502 458,502 457,501 456,501 455,500 454,500 453,499 452,499 451,498 449,498 447,496 445,496 444,495 443,495 442,494 441,494 440,493 439,493 438,492 437,492 436,491 435,491 434,490 433,490 432,489 431,489 430,488 429,488 428,487 427,487 426,486 425,486 424,485 423,485 422,484 421,484 420,483 419,483 418,482 417,482 416,481 415,481 414,480 413,480 412,479 411,479 410,478 409,478 408,477 407,477 406,476 405,476 404,475 403,475 402,474 401,474 399,472 398,472 397,471 396,471 395,470 393,470 391,468 390,468 389,467 388,467 387,466 385,466 384,465 383,465 382,464 381,464 380,463 378,463 377,462 376,462 375,461 374,461 373,460 372,460 371,459 370,459 369,458 368,458 366,456 365,456 364,455 363,455 362,454 361,454 359,452 358,452 357,451 356,451 355,450 353,450 352,449 351,449 350,448 349,448 348,447 347,447 346,446 345,446 344,445 343,445 342,444 341,444 340,443 339,443 338,442 337,442 336,441 335,441 334,440 333,440 332,439 331,439 329,437 328,437 326,435 325,435 324,434 323,434 321,432 319,432 318,431 316,431 315,430 312,430 311,429 Z" fill="currentColor" stroke="none" /><path d="M 333,404 331,406 331,407 330,408 330,423 332,423 333,424 335,424 336,425 337,425 338,426 340,426 341,427 342,427 343,428 344,428 345,429 346,429 347,430 348,430 349,431 350,431 351,432 352,432 353,433 354,433 355,434 356,434 357,435 358,435 359,436 360,436 361,437 362,437 363,438 364,438 365,439 366,439 367,440 368,440 369,441 370,441 371,442 372,442 373,443 374,443 375,444 376,444 377,445 378,445 379,446 380,446 381,447 382,447 383,448 384,448 385,449 386,449 387,450 388,450 389,451 390,451 391,452 392,452 393,453 394,453 395,454 396,454 397,455 398,455 399,456 400,456 401,457 402,457 403,458 404,458 405,459 406,459 407,460 408,460 409,461 410,461 411,462 412,462 413,463 414,463 415,464 416,464 417,465 418,465 419,466 420,466 421,467 422,467 423,468 424,468 425,469 426,469 427,470 428,470 430,472 431,472 432,473 433,473 434,474 435,474 436,475 437,475 438,476 439,476 440,477 441,477 442,478 443,478 444,479 445,479 446,480 447,480 448,481 449,481 450,482 451,482 452,483 453,483 454,484 455,484 456,485 457,485 458,486 459,486 461,488 462,488 463,489 464,489 465,490 466,490 467,491 468,491 469,492 470,492 471,493 472,493 473,494 474,494 475,495 477,495 478,496 479,496 480,497 481,497 482,498 483,498 484,499 490,499 490,498 491,497 491,488 490,487 490,486 489,485 489,484 488,483 487,483 485,481 484,481 483,480 482,480 481,479 480,479 479,478 478,478 477,477 476,477 475,476 474,476 473,475 472,475 471,474 469,474 467,472 466,472 465,471 464,471 463,470 462,470 461,469 460,469 459,468 458,468 457,467 456,467 455,466 454,466 453,465 452,465 450,463 449,463 448,462 446,462 445,461 444,461 443,460 442,460 441,459 440,459 439,458 438,458 437,457 436,457 435,456 434,456 432,454 431,454 430,453 429,453 428,452 427,452 426,451 425,451 424,450 423,450 421,448 420,448 419,447 418,447 417,446 416,446 415,445 414,445 413,444 412,444 411,443 410,443 409,442 408,442 406,440 404,440 402,438 401,438 400,437 398,437 397,436 396,436 395,435 394,435 392,433 391,433 390,432 389,432 388,431 387,431 386,430 385,430 384,429 383,429 381,427 380,427 379,426 378,426 377,425 376,425 375,424 374,424 372,422 371,422 370,421 369,421 368,420 367,420 366,419 365,419 364,418 363,418 362,417 361,417 359,415 358,415 357,414 356,414 355,413 354,413 353,412 352,412 351,411 350,411 349,410 348,410 347,409 346,409 345,408 344,408 343,407 342,407 341,406 340,406 339,405 338,405 337,404 Z" fill="currentColor" stroke="none" /><path d="M 690,403 689,404 688,404 686,406 685,406 683,408 682,408 681,409 680,409 679,410 678,410 677,411 676,411 675,412 674,412 673,413 672,413 671,414 670,414 669,415 668,415 667,416 666,416 665,417 664,417 663,418 662,418 660,420 659,420 658,421 657,421 656,422 655,422 654,423 653,423 652,424 651,424 649,426 648,426 647,427 646,427 645,428 644,428 643,429 642,429 641,430 640,430 639,431 638,431 636,433 635,433 634,434 633,434 632,435 631,435 630,436 629,436 627,438 626,438 625,439 624,439 623,440 622,440 621,441 620,441 619,442 618,442 617,443 616,443 614,445 613,445 612,446 610,446 608,448 607,448 606,449 605,449 604,450 603,450 602,451 601,451 600,452 599,452 597,454 596,454 595,455 594,455 593,456 592,456 591,457 590,457 589,458 588,458 587,459 586,459 585,460 584,460 583,461 582,461 581,462 580,462 579,463 578,463 577,464 576,464 574,466 573,466 572,467 571,467 570,468 569,468 568,469 567,469 566,470 565,470 564,471 563,471 562,472 561,472 559,474 558,474 557,475 556,475 555,476 554,476 552,478 551,478 550,479 549,479 547,481 546,481 541,486 540,486 535,491 535,492 533,494 533,495 532,496 532,501 534,503 536,503 537,502 540,502 541,501 542,501 543,500 544,500 546,498 547,498 548,497 549,497 550,496 551,496 552,495 553,495 554,494 555,494 556,493 557,493 558,492 559,492 560,491 561,491 562,490 563,490 565,488 566,488 567,487 568,487 569,486 570,486 572,484 573,484 574,483 575,483 576,482 577,482 578,481 579,481 580,480 581,480 582,479 583,479 584,478 585,478 586,477 587,477 588,476 589,476 590,475 591,475 592,474 594,474 595,473 596,473 597,472 598,472 599,471 600,471 601,470 602,470 603,469 604,469 605,468 606,468 608,466 609,466 610,465 611,465 612,464 613,464 614,463 615,463 616,462 617,462 618,461 619,461 620,460 621,460 622,459 623,459 624,458 625,458 626,457 627,457 628,456 629,456 630,455 631,455 632,454 633,454 634,453 635,453 637,451 638,451 639,450 640,450 641,449 642,449 643,448 644,448 645,447 646,447 647,446 648,446 649,445 650,445 651,444 652,444 653,443 654,443 655,442 656,442 657,441 658,441 659,440 660,440 661,439 662,439 663,438 664,438 665,437 666,437 667,436 668,436 669,435 670,435 671,434 672,434 673,433 674,433 675,432 676,432 677,431 678,431 679,430 680,430 682,428 683,428 684,427 685,427 686,426 687,426 688,425 690,425 691,424 692,424 693,423 694,423 695,422 697,422 698,421 698,408 697,407 697,406 696,405 696,404 695,404 694,403 Z" fill="currentColor" stroke="none" /><path d="M 360,382 359,383 358,383 355,386 355,387 354,388 354,399 355,400 357,400 358,401 360,401 362,403 363,403 364,404 365,404 366,405 367,405 368,406 369,406 370,407 371,407 372,408 373,408 374,409 375,409 376,410 377,410 378,411 379,411 380,412 381,412 382,413 384,413 386,415 387,415 388,416 389,416 390,417 391,417 392,418 393,418 394,419 395,419 397,421 399,421 401,423 402,423 403,424 404,424 405,425 406,425 407,426 408,426 409,427 410,427 411,428 412,428 413,429 414,429 415,430 416,430 417,431 418,431 419,432 420,432 422,434 423,434 424,435 425,435 426,436 427,436 428,437 429,437 431,439 432,439 433,440 434,440 435,441 436,441 437,442 438,442 439,443 440,443 441,444 442,444 443,445 444,445 445,446 446,446 447,447 448,447 450,449 451,449 452,450 453,450 454,451 455,451 457,453 458,453 459,454 460,454 462,456 463,456 464,457 465,457 466,458 467,458 468,459 469,459 471,461 472,461 473,462 474,462 475,463 476,463 478,465 479,465 481,467 482,467 483,468 484,468 485,469 486,469 487,470 488,470 489,471 490,471 492,473 493,473 495,475 496,475 499,478 500,478 507,485 508,485 512,489 513,489 514,490 518,490 525,483 526,483 533,476 534,476 538,472 539,472 541,470 542,470 544,468 545,468 547,466 548,466 550,464 551,464 552,463 553,463 555,461 556,461 558,459 559,459 560,458 561,458 562,457 563,457 565,455 566,455 567,454 568,454 570,452 571,452 572,451 573,451 574,450 575,450 576,449 577,449 579,447 580,447 581,446 582,446 584,444 585,444 586,443 587,443 588,442 589,442 590,441 591,441 592,440 594,440 596,438 597,438 598,437 599,437 600,436 601,436 603,434 604,434 605,433 606,433 607,432 608,432 609,431 610,431 612,429 613,429 614,428 615,428 616,427 617,427 618,426 619,426 620,425 621,425 622,424 623,424 625,422 626,422 627,421 628,421 629,420 630,420 632,418 633,418 634,417 636,417 638,415 639,415 640,414 641,414 642,413 643,413 644,412 645,412 646,411 647,411 648,410 649,410 650,409 651,409 653,407 654,407 655,406 656,406 657,405 658,405 659,404 660,404 661,403 662,403 664,401 666,401 667,400 669,400 670,399 671,399 671,387 669,385 669,384 668,384 666,382 658,382 657,383 656,383 655,384 654,384 653,385 652,385 651,386 650,386 648,388 647,388 645,390 644,390 643,391 642,391 640,393 639,393 638,394 637,394 635,396 634,396 633,397 632,397 631,398 630,398 629,399 628,399 626,401 625,401 624,402 623,402 622,403 621,403 619,405 618,405 617,406 616,406 615,407 614,407 613,408 612,408 611,409 610,409 609,410 608,410 607,411 606,411 604,413 603,413 602,414 601,414 600,415 599,415 598,416 597,416 595,418 594,418 593,419 592,419 591,420 590,420 588,422 587,422 586,423 585,423 583,425 582,425 581,426 580,426 579,427 578,427 577,428 576,428 574,430 573,430 572,431 571,431 570,432 569,432 567,434 566,434 564,436 563,436 562,437 561,437 559,439 558,439 556,441 555,441 553,443 552,443 551,444 550,444 548,446 547,446 545,448 544,448 542,450 541,450 539,452 538,452 536,454 535,454 534,455 533,455 531,457 530,457 528,459 527,459 525,461 524,461 522,463 521,463 517,467 516,467 515,468 514,468 513,467 512,467 510,465 509,465 507,463 506,463 505,462 504,462 502,460 501,460 499,458 498,458 496,456 495,456 493,454 492,454 490,452 489,452 487,450 486,450 485,449 484,449 482,447 481,447 480,446 479,446 477,444 476,444 475,443 474,443 472,441 471,441 470,440 469,440 467,438 465,438 463,436 462,436 460,434 459,434 458,433 457,433 455,431 454,431 453,430 452,430 450,428 449,428 448,427 447,427 446,426 445,426 443,424 442,424 441,423 440,423 439,422 438,422 437,421 436,421 435,420 434,420 432,418 431,418 430,417 429,417 428,416 427,416 426,415 425,415 424,414 423,414 422,413 421,413 419,411 418,411 417,410 416,410 415,409 414,409 413,408 412,408 410,406 409,406 408,405 407,405 406,404 405,404 404,403 403,403 402,402 401,402 399,400 398,400 397,399 396,399 395,398 394,398 393,397 392,397 391,396 390,396 388,394 387,394 386,393 385,393 383,391 382,391 381,390 380,390 378,388 377,388 376,387 375,387 374,386 373,386 371,384 369,384 368,383 367,383 366,382 Z" fill="currentColor" stroke="none" /><path d="M 340,250 339,251 337,251 332,256 332,257 329,260 329,261 328,262 328,263 327,264 327,265 326,266 326,267 325,268 325,269 324,270 324,271 323,272 323,274 322,275 322,277 321,278 321,280 320,281 320,285 319,286 319,290 318,291 318,309 319,310 319,314 320,315 320,318 321,319 321,321 322,322 322,323 323,324 323,325 324,326 324,328 325,329 325,330 326,331 326,332 327,333 327,334 328,335 328,336 329,337 329,338 330,339 330,340 332,342 332,343 335,346 336,346 337,347 339,347 340,348 348,348 349,347 350,347 353,344 354,344 354,343 357,340 357,338 358,337 358,336 359,335 359,329 358,328 358,327 357,326 357,325 355,323 355,322 354,321 354,320 353,319 353,318 351,316 351,314 350,313 350,312 349,311 349,308 348,307 348,290 349,289 349,286 350,285 350,283 351,282 351,281 353,279 353,278 356,275 356,274 359,271 359,270 360,269 360,261 359,260 359,259 357,257 357,256 353,252 352,252 351,251 350,251 349,250 Z" fill="currentColor" stroke="none" /><path d="M 680,249 679,250 677,250 676,251 675,251 674,252 673,252 671,254 671,255 668,258 668,259 667,260 667,262 666,263 666,269 667,270 667,272 668,273 668,274 670,276 670,277 671,278 671,279 672,280 672,281 673,282 673,283 674,284 674,286 675,287 675,289 676,290 676,293 677,294 677,304 676,305 676,309 675,310 675,312 674,313 674,315 673,316 673,317 672,318 672,319 671,320 671,321 670,322 670,323 669,324 669,325 668,326 668,336 669,337 669,338 670,339 670,340 671,341 671,342 676,347 679,347 680,348 683,348 684,347 687,347 688,346 689,346 693,342 693,341 694,340 694,339 695,338 695,337 696,336 696,335 698,333 698,332 699,331 699,330 700,329 700,328 701,327 701,326 702,325 702,324 703,323 703,321 704,320 704,319 705,318 705,315 706,314 706,311 707,310 707,290 706,289 706,284 705,283 705,281 704,280 704,278 703,277 703,275 702,274 702,273 701,272 701,271 700,270 700,268 699,267 699,266 698,265 698,264 697,263 697,262 695,260 695,259 694,258 694,257 692,255 692,254 690,252 689,252 688,251 687,251 686,250 684,250 683,249 Z" fill="currentColor" stroke="none" /><path d="M 567,244 566,245 565,245 564,246 563,246 562,247 561,247 557,251 557,252 556,253 556,254 555,255 555,256 554,257 554,262 555,263 555,264 556,265 556,266 558,268 558,269 559,270 559,271 561,273 561,274 562,275 562,276 563,277 563,278 564,279 564,280 565,281 565,283 566,284 566,286 567,287 567,291 568,292 568,304 567,305 567,308 566,309 566,311 565,312 565,313 564,314 564,316 563,317 563,318 562,319 562,320 560,322 560,323 559,324 559,325 558,326 558,327 557,328 557,329 556,330 556,331 555,332 555,333 554,334 554,336 555,337 555,340 557,342 557,343 561,347 562,347 563,348 564,348 565,349 568,349 569,350 571,350 572,349 574,349 575,348 576,348 578,346 579,346 580,345 580,344 584,340 584,339 585,338 585,337 587,335 587,334 589,332 589,331 590,330 590,328 591,327 591,326 592,325 592,324 593,323 593,321 594,320 594,319 595,318 595,315 596,314 596,312 597,311 597,303 598,302 598,297 597,296 597,287 596,286 596,281 595,280 595,276 594,275 594,272 593,271 593,269 592,268 592,267 591,266 591,264 590,263 590,262 589,261 589,260 588,259 588,258 587,257 587,256 586,255 586,254 584,252 584,251 580,247 579,247 577,245 575,245 574,244 Z" fill="currentColor" stroke="none" /><path d="M 452,244 451,245 449,245 447,247 446,247 444,249 444,250 441,253 441,254 439,256 439,257 438,258 438,259 437,260 437,261 436,262 436,263 435,264 435,266 434,267 434,268 433,269 433,271 432,272 432,275 431,276 431,279 430,280 430,285 429,286 429,307 430,308 430,313 431,314 431,317 432,318 432,320 433,321 433,323 434,324 434,326 435,327 435,328 436,329 436,330 437,331 437,332 438,333 438,334 439,335 439,336 440,337 440,338 441,339 441,340 442,341 442,342 449,349 451,349 452,350 461,350 462,349 463,349 464,348 465,348 468,345 468,344 469,343 469,342 470,341 470,340 471,339 471,337 472,336 472,334 471,333 471,331 469,329 469,328 465,324 465,323 463,321 463,320 462,319 462,318 461,317 461,316 460,315 460,313 459,312 459,309 458,308 458,302 457,301 457,290 458,289 458,285 459,284 459,283 460,282 460,280 461,279 461,278 463,276 463,275 464,274 464,273 469,268 469,267 473,263 473,262 474,261 474,258 473,257 473,255 471,253 471,252 470,251 469,251 466,248 465,248 463,246 461,246 460,245 458,245 457,244 Z" fill="currentColor" stroke="none" /><path d="M 296,218 295,219 293,219 291,221 290,221 287,224 287,225 285,227 285,228 283,230 283,231 281,233 281,234 280,235 280,236 279,237 279,238 278,239 278,240 277,241 277,242 276,243 276,244 275,245 275,246 274,247 274,248 273,249 273,251 272,252 272,254 271,255 271,256 270,257 270,259 269,260 269,263 268,264 268,267 267,268 267,270 266,271 266,275 265,276 265,280 264,281 264,289 263,290 263,311 264,312 264,321 265,322 265,326 266,327 266,330 267,331 267,334 268,335 268,337 269,338 269,340 270,341 270,343 271,344 271,346 272,347 272,348 273,349 273,350 274,351 274,353 275,354 275,355 276,356 276,357 278,359 278,360 279,361 279,362 280,363 280,364 281,365 281,366 282,367 282,368 284,370 284,371 286,373 286,374 291,379 292,379 293,380 295,380 296,381 304,381 306,379 307,379 311,375 311,374 312,373 312,372 313,371 313,370 314,369 314,367 315,366 315,364 314,363 314,361 312,359 312,358 311,357 311,356 308,353 308,352 307,351 307,350 305,348 305,347 304,346 304,345 303,344 303,343 302,342 302,341 301,340 301,339 300,338 300,336 299,335 299,333 298,332 298,331 297,330 297,328 296,327 296,324 295,323 295,318 294,317 294,311 293,310 293,286 294,285 294,280 295,279 295,275 296,274 296,271 297,270 297,268 298,267 298,265 299,264 299,262 300,261 300,260 301,259 301,258 302,257 302,255 304,253 304,252 306,250 306,249 308,247 308,246 310,244 310,243 311,242 311,241 313,239 313,238 314,237 314,228 313,227 313,226 312,225 312,224 309,221 308,221 306,219 305,219 304,218 Z" fill="currentColor" stroke="none" /><path d="M 723,217 722,218 720,218 719,219 718,219 714,223 714,224 712,226 712,229 711,230 711,234 712,235 712,238 713,239 713,240 715,242 715,243 716,244 716,245 718,247 718,248 720,250 720,251 721,252 721,253 722,254 722,255 723,256 723,257 724,258 724,259 725,260 725,261 726,262 726,264 727,265 727,267 728,268 728,271 729,272 729,274 730,275 730,278 731,279 731,284 732,285 732,297 733,298 733,300 732,301 732,312 731,313 731,317 730,318 730,322 729,323 729,326 728,327 728,330 727,331 727,333 726,334 726,335 725,336 725,338 724,339 724,340 723,341 723,342 722,343 722,344 721,345 721,346 720,347 720,348 718,350 718,351 717,352 717,353 715,355 715,356 714,357 714,358 713,359 713,360 712,361 712,368 713,369 713,371 714,372 714,373 715,374 715,375 717,377 718,377 720,379 721,379 722,380 725,380 726,381 727,381 728,380 732,380 734,378 735,378 736,377 736,376 738,374 738,373 740,371 740,370 741,369 741,368 743,366 743,365 745,363 745,362 746,361 746,360 747,359 747,358 748,357 748,356 749,355 749,354 750,353 750,351 751,350 751,349 752,348 752,347 753,346 753,345 754,344 754,342 755,341 755,339 756,338 756,337 757,336 757,333 758,332 758,330 759,329 759,326 760,325 760,320 761,319 761,313 762,312 762,288 761,287 761,280 760,279 760,275 759,274 759,271 758,270 758,268 757,267 757,264 756,263 756,261 755,260 755,257 754,256 754,254 753,253 753,252 752,251 752,250 751,249 751,248 750,247 750,246 749,245 749,244 748,243 748,242 747,241 747,240 746,239 746,237 745,236 745,235 744,234 744,233 743,232 743,231 741,229 741,228 740,227 740,226 738,224 738,223 734,219 733,219 732,218 730,218 729,217 Z" fill="currentColor" stroke="none" /><path d="M 509,194 508,195 506,195 501,200 501,201 500,202 500,204 499,205 499,267 500,268 500,287 499,288 499,386 500,387 500,391 501,392 501,393 507,399 509,399 510,400 516,400 517,399 519,399 521,397 522,397 525,394 525,393 526,392 526,390 527,389 527,203 526,202 526,201 525,200 525,199 523,197 522,197 521,196 520,196 519,195 518,195 517,194 Z" fill="currentColor" stroke="none" /><path d="M 252,186 251,187 250,187 249,188 248,188 245,191 245,192 241,196 241,197 239,199 239,200 237,202 237,203 235,205 235,206 234,207 234,208 232,210 232,211 231,212 231,213 230,214 230,215 229,216 229,217 228,218 228,219 227,220 227,222 226,223 226,224 225,225 225,226 224,227 224,229 223,230 223,231 222,232 222,234 221,235 221,237 220,238 220,240 219,241 219,242 218,243 218,246 217,247 217,249 216,250 216,253 215,254 215,257 214,258 214,261 213,262 213,265 212,266 212,272 211,273 211,278 210,279 210,288 209,289 209,315 210,316 210,324 211,325 211,332 212,333 212,337 213,338 213,342 214,343 214,347 215,348 215,351 216,352 216,354 217,355 217,358 218,359 218,361 219,362 219,364 220,365 220,366 221,367 221,369 222,370 222,371 223,372 223,373 224,374 224,376 226,378 226,380 227,381 227,382 229,384 229,385 230,386 230,387 232,389 232,390 233,391 233,392 235,394 235,395 237,397 237,398 238,399 238,400 240,402 240,403 242,405 242,406 247,411 248,411 250,413 252,413 253,414 259,414 260,413 262,413 264,411 265,411 269,407 269,406 270,405 270,404 271,403 271,396 270,395 270,394 268,392 268,391 266,389 266,388 264,386 264,385 262,383 262,382 260,380 260,379 259,378 259,377 258,376 258,375 257,374 257,373 255,371 255,370 254,369 254,368 253,367 253,366 252,365 252,364 251,363 251,362 250,361 250,359 249,358 249,357 248,356 248,354 247,353 247,352 246,351 246,349 245,348 245,346 244,345 244,342 243,341 243,339 242,338 242,334 241,333 241,330 240,329 240,323 239,322 239,313 238,312 238,287 239,286 239,279 240,278 240,274 241,273 241,270 242,269 242,265 243,264 243,261 244,260 244,258 245,257 245,254 246,253 246,251 247,250 247,247 248,246 248,245 249,244 249,242 250,241 250,240 251,239 251,238 252,237 252,235 253,234 253,233 254,232 254,231 255,230 255,229 256,228 256,227 258,225 258,224 260,222 260,221 261,220 261,219 262,218 262,217 264,215 264,214 268,210 268,209 270,207 270,206 271,205 271,204 272,203 272,198 271,197 271,195 270,194 270,193 265,188 264,188 263,187 262,187 261,186 Z" fill="currentColor" stroke="none" /><path d="M 765,185 764,186 763,186 762,187 761,187 755,193 755,194 754,195 754,197 753,198 753,201 754,202 754,205 755,206 755,207 758,210 758,211 761,214 761,215 763,217 763,218 764,219 764,220 766,222 766,223 767,224 767,225 769,227 769,228 770,229 770,230 771,231 771,232 772,233 772,234 773,235 773,236 774,237 774,239 775,240 775,242 776,243 776,244 777,245 777,247 778,248 778,250 779,251 779,253 780,254 780,256 781,257 781,259 782,260 782,263 783,264 783,267 784,268 784,272 785,273 785,278 786,279 786,286 787,287 787,316 786,317 786,323 785,324 785,327 784,328 784,332 783,333 783,336 782,337 782,340 781,341 781,343 780,344 780,347 779,348 779,349 778,350 778,353 777,354 777,355 776,356 776,358 775,359 775,360 774,361 774,363 773,364 773,365 772,366 772,367 771,368 771,369 770,370 770,371 769,372 769,373 768,374 768,375 767,376 767,377 765,379 765,380 764,381 764,382 762,384 762,385 760,387 760,388 759,389 759,390 758,391 758,392 757,393 757,394 756,395 756,397 755,398 755,400 756,401 756,404 757,405 757,406 759,408 759,409 760,410 761,410 764,413 766,413 767,414 773,414 774,413 776,413 781,408 781,407 784,404 784,403 786,401 786,400 788,398 788,397 789,396 789,395 790,394 790,393 791,392 791,391 792,390 792,389 794,387 794,386 796,384 796,383 797,382 797,381 798,380 798,379 799,378 799,377 800,376 800,375 801,374 801,373 802,372 802,371 803,370 803,368 804,367 804,366 805,365 805,364 806,363 806,361 807,360 807,358 808,357 808,355 809,354 809,351 810,350 810,347 811,346 811,342 812,341 812,337 813,336 813,331 814,330 814,323 815,322 815,309 816,308 816,288 815,287 815,279 814,278 814,272 813,271 813,268 812,267 812,262 811,261 811,258 810,257 810,253 809,252 809,250 808,249 808,246 807,245 807,243 806,242 806,240 805,239 805,237 804,236 804,234 803,233 803,231 802,230 802,229 801,228 801,226 800,225 800,224 799,223 799,222 798,221 798,220 797,219 797,218 796,217 796,216 795,215 795,214 794,213 794,212 793,211 793,210 792,209 792,208 790,206 790,205 789,204 789,203 788,202 788,201 786,199 786,198 785,197 785,196 783,194 783,193 781,191 781,190 779,188 778,188 776,186 774,186 773,185 Z" fill="currentColor" stroke="none" /></svg>

