<svg width="24" height="24" viewBox="0 0 24 24" fill="none" xmlns="http://www.w3.org/2000/svg">
<path fill-rule="evenodd" clip-rule="evenodd" d="M12 5.25005C13.213 5.25005 14.415 5.29605 15.605 5.38505C16.3845 5.44202 17.1174 5.77743 17.67 6.33005C18.2227 6.88267 18.5581 7.61561 18.615 8.39505C18.659 8.97805 18.692 9.56505 18.715 10.1541L17.03 8.47005C16.9614 8.39636 16.8786 8.33726 16.7866 8.29627C16.6946 8.25528 16.5953 8.23323 16.4946 8.23146C16.3939 8.22968 16.2938 8.24821 16.2004 8.28593C16.107 8.32365 16.0222 8.37979 15.951 8.45101C15.8798 8.52223 15.8236 8.60706 15.7859 8.70045C15.7482 8.79384 15.7297 8.89387 15.7314 8.99457C15.7332 9.09527 15.7553 9.19459 15.7963 9.28659C15.8372 9.37859 15.8963 9.46139 15.97 9.53005L18.97 12.5301C19.1107 12.6705 19.3013 12.7494 19.5 12.7494C19.6988 12.7494 19.8894 12.6705 20.03 12.5301L23.03 9.53005C23.1625 9.38787 23.2346 9.19983 23.2312 9.00553C23.2278 8.81123 23.1491 8.62584 23.0117 8.48843C22.8742 8.35102 22.6889 8.2723 22.4946 8.26887C22.3003 8.26545 22.1122 8.33757 21.97 8.47005L20.218 10.221C20.195 9.57105 20.158 8.92505 20.11 8.28205C20.0259 7.14511 19.5361 6.07622 18.73 5.27008C17.9239 4.46394 16.855 3.97419 15.718 3.89005C13.2429 3.70332 10.7572 3.70332 8.28203 3.89005C7.14509 3.97419 6.0762 4.46394 5.27006 5.27008C4.46392 6.07622 3.97418 7.14511 3.89003 8.28205C3.87303 8.50605 3.85703 8.72905 3.84403 8.95405C3.83641 9.05322 3.84859 9.15291 3.87986 9.24732C3.91113 9.34173 3.96087 9.42898 4.02618 9.50399C4.09149 9.579 4.17106 9.64028 4.26028 9.68424C4.34949 9.72821 4.44655 9.75399 4.54582 9.76009C4.64509 9.76619 4.74458 9.75249 4.83851 9.71978C4.93243 9.68707 5.01891 9.636 5.09291 9.56955C5.16692 9.5031 5.22696 9.4226 5.26956 9.33272C5.31215 9.24285 5.33645 9.1454 5.34103 9.04605C5.35403 8.82905 5.36903 8.61205 5.38503 8.39505C5.442 7.61561 5.77741 6.88267 6.33003 6.33005C6.88265 5.77743 7.61559 5.44202 8.39503 5.38505C9.58503 5.29505 10.787 5.25005 12 5.25005ZM5.03003 11.4701C4.88941 11.3296 4.69878 11.2507 4.50003 11.2507C4.30128 11.2507 4.11066 11.3296 3.97003 11.4701L0.970032 14.4701C0.896345 14.5387 0.837242 14.6215 0.796251 14.7135C0.755259 14.8055 0.733217 14.9048 0.73144 15.0055C0.729663 15.1062 0.748188 15.2063 0.785909 15.2996C0.82363 15.393 0.879774 15.4779 0.950993 15.5491C1.02221 15.6203 1.10705 15.6765 1.20043 15.7142C1.29382 15.7519 1.39385 15.7704 1.49455 15.7686C1.59526 15.7669 1.69457 15.7448 1.78657 15.7038C1.87857 15.6628 1.96137 15.6037 2.03003 15.5301L3.78203 13.7791C3.80503 14.4291 3.84203 15.0751 3.89003 15.7181C3.97418 16.855 4.46392 17.9239 5.27006 18.73C6.0762 19.5362 7.14509 20.0259 8.28203 20.1101C10.7572 20.2968 13.2429 20.2968 15.718 20.1101C16.855 20.0259 17.9239 19.5362 18.73 18.73C19.5361 17.9239 20.0259 16.855 20.11 15.7181C20.127 15.4951 20.142 15.2711 20.156 15.0461C20.1651 14.8493 20.0964 14.6569 19.9649 14.5104C19.8333 14.3639 19.6494 14.275 19.4528 14.2629C19.2563 14.2508 19.0629 14.3166 18.9143 14.4459C18.7658 14.5752 18.6741 14.7577 18.659 14.9541C18.646 15.1711 18.631 15.3881 18.615 15.6051C18.5581 16.3845 18.2227 17.1174 17.67 17.6701C17.1174 18.2227 16.3845 18.5581 15.605 18.6151C13.2051 18.796 10.795 18.796 8.39503 18.6151C7.61559 18.5581 6.88265 18.2227 6.33003 17.6701C5.77741 17.1174 5.442 16.3845 5.38503 15.6051C5.34089 15.0194 5.30755 14.4329 5.28503 13.8461L6.97003 15.5301C7.11221 15.6625 7.30025 15.7347 7.49455 15.7312C7.68886 15.7278 7.87424 15.6491 8.01165 15.5117C8.14907 15.3743 8.22778 15.1889 8.23121 14.9946C8.23463 14.8003 8.16251 14.6122 8.03003 14.4701L5.03003 11.4701Z" fill="currentColor"/>
</svg>
