<svg width="25" height="24" viewBox="0 0 25 24" fill="none" xmlns="http://www.w3.org/2000/svg">
<path d="M11.6764 3.836C11.6114 4.046 11.5764 4.269 11.5764 4.5C11.5764 4.914 11.9124 5.25 12.3264 5.25H16.8264C17.0253 5.25 17.2161 5.17098 17.3567 5.03033C17.4974 4.88968 17.5764 4.69891 17.5764 4.5C17.5765 4.27491 17.5428 4.05109 17.4764 3.836M11.6764 3.836C11.8184 3.3767 12.1038 2.97493 12.4907 2.68954C12.8776 2.40414 13.3457 2.25011 13.8264 2.25H15.3264C16.3384 2.25 17.1934 2.918 17.4764 3.836M11.6764 3.836C11.3004 3.859 10.9264 3.886 10.5524 3.916C9.42142 4.01 8.57642 4.973 8.57642 6.108V8.25M17.4764 3.836C17.8524 3.859 18.2264 3.886 18.6004 3.916C19.7314 4.01 20.5764 4.973 20.5764 6.108V16.5C20.5764 17.0967 20.3394 17.669 19.9174 18.091C19.4954 18.5129 18.9232 18.75 18.3264 18.75H16.0764M8.57642 8.25H5.20142C4.58042 8.25 4.07642 8.754 4.07642 9.375V20.625C4.07642 21.246 4.58042 21.75 5.20142 21.75H14.9514C15.5724 21.75 16.0764 21.246 16.0764 20.625V18.75M8.57642 8.25H14.9514C15.5724 8.25 16.0764 8.754 16.0764 9.375V18.75M7.82642 15.75L9.32642 17.25L12.3264 13.5" stroke="currentColor" stroke-width="1.5" stroke-linecap="round" stroke-linejoin="round"/>
</svg>
